<?xml version="1.0" standalone="no"?>
<!DOCTYPE svg PUBLIC "-//W3C//DTD SVG 20010904//EN"
 "http://www.w3.org/TR/2001/REC-SVG-20010904/DTD/svg10.dtd">
<svg version="1.0" xmlns="http://www.w3.org/2000/svg"
 width="1024.000000pt" height="1024.000000pt" viewBox="0 0 1024.000000 1024.000000"
 preserveAspectRatio="xMidYMid meet">
<metadata>
Created by potrace 1.14, written by Peter Selinger 2001-2017
</metadata>
<g transform="translate(0.000000,1024.000000) scale(0.100000,-0.100000)"
fill="#000000" stroke="none">
<path d="M5017 9603 c-3 -3 -25 -7 -49 -9 -65 -5 -140 -14 -168 -19 -14 -2
-38 -7 -55 -9 -79 -13 -237 -55 -300 -78 -27 -11 -54 -21 -60 -22 -28 -8 -174
-72 -195 -86 -8 -5 -41 -22 -72 -37 -32 -15 -58 -31 -58 -35 0 -4 -7 -8 -15
-8 -8 0 -15 -4 -15 -10 0 -5 -5 -10 -10 -10 -6 0 -36 -18 -68 -41 -31 -22 -72
-49 -89 -61 -18 -11 -33 -24 -33 -29 0 -5 -4 -9 -9 -9 -26 0 -321 -295 -321
-321 0 -5 -3 -9 -7 -9 -5 0 -19 -17 -33 -38 -14 -20 -27 -39 -31 -42 -22 -20
-182 -288 -184 -310 -1 -3 -6 -15 -13 -28 -19 -33 -82 -199 -99 -257 -27 -95
-34 -120 -39 -150 -3 -16 -9 -46 -14 -65 -16 -62 -31 -172 -35 -262 -1 -31 -6
-61 -9 -67 -4 -6 -2 -11 4 -11 6 0 9 -4 6 -8 -14 -23 -2 -247 19 -374 13 -78
17 -97 26 -138 5 -25 19 -76 30 -114 12 -38 22 -77 24 -87 2 -11 7 -25 12 -32
4 -6 8 -14 9 -17 1 -7 11 -33 36 -95 29 -72 138 -279 151 -287 7 -4 9 -8 5 -8
-7 0 105 -166 121 -180 3 -3 31 -34 61 -70 58 -69 194 -205 242 -243 16 -12
41 -32 56 -45 15 -12 58 -44 95 -69 55 -38 65 -49 50 -54 -10 -4 -22 -3 -28 0
-11 8 -53 7 -61 -2 -3 -3 -16 -2 -29 3 -13 5 -25 6 -28 3 -3 -3 -30 -7 -59 -9
-29 -2 -60 -5 -68 -7 -139 -34 -227 -83 -320 -177 -41 -42 -84 -94 -95 -115
-11 -22 -23 -41 -27 -43 -4 -2 -20 -42 -34 -90 -35 -111 -39 -257 -10 -380 13
-58 88 -192 139 -247 44 -48 165 -145 181 -145 2 0 21 -8 42 -17 22 -9 42 -18
47 -19 4 -1 8 -2 10 -4 1 -1 9 -3 17 -5 8 -2 29 -6 45 -10 27 -6 74 -12 116
-14 13 -1 16 -15 16 -73 1 -40 2 -77 3 -83 1 -5 2 -12 0 -15 -1 -3 -3 -61 -5
-130 -6 -224 -24 -514 -40 -657 -3 -24 -7 -62 -10 -85 -5 -53 -14 -122 -21
-168 -2 -19 -7 -51 -9 -70 -14 -102 -22 -147 -41 -240 -9 -41 -17 -84 -18 -95
-2 -11 -6 -31 -10 -43 -5 -13 -9 -34 -11 -45 -6 -42 -44 -193 -75 -292 -17
-55 -33 -109 -35 -120 -3 -11 -9 -29 -14 -40 -5 -11 -19 -46 -30 -77 -11 -32
-25 -66 -30 -75 -4 -10 -30 -63 -56 -118 -26 -55 -55 -108 -63 -117 -8 -10
-11 -18 -6 -19 31 -2 114 0 121 4 4 2 17 1 28 -3 11 -4 34 -4 52 1 18 4 35 3
38 -1 3 -4 21 -4 40 0 19 4 37 4 40 0 3 -4 21 -4 40 0 19 4 37 4 40 -1 3 -4
11 -6 19 -3 17 7 146 10 146 4 0 -3 20 -5 45 -5 25 0 45 3 45 6 0 3 19 3 43 0
23 -4 66 -4 95 -1 29 4 54 4 57 2 7 -7 185 -7 185 -1 0 4 15 4 33 0 18 -5 41
-5 52 -1 11 4 29 4 40 0 11 -4 29 -4 40 0 11 4 30 4 41 -1 12 -4 24 -6 26 -4
5 5 37 6 148 5 47 -1 90 -1 95 0 6 1 23 1 40 0 74 -5 125 -4 125 1 0 4 15 4
33 0 17 -4 46 -4 62 -1 17 4 40 3 51 -1 12 -4 24 -6 27 -3 3 3 27 5 53 4 47
-1 70 -1 97 1 6 0 40 -1 74 -2 35 -1 65 0 68 3 3 3 24 2 45 -2 22 -4 43 -4 45
0 3 4 20 5 37 1 18 -4 45 -4 59 0 15 3 32 3 39 -1 7 -4 27 -4 46 0 18 4 35 5
38 3 8 -8 186 -9 186 -1 0 4 6 5 14 2 20 -8 226 -10 226 -3 0 4 15 3 34 -1 19
-4 39 -4 46 0 7 4 26 4 44 1 17 -4 42 -4 56 -1 14 4 34 4 45 0 11 -3 36 -3 55
0 19 3 49 3 66 -1 18 -3 37 -3 44 1 7 4 24 4 39 1 14 -4 43 -4 63 -1 21 4 38
5 38 1 0 -4 81 -6 109 -2 2 1 -3 9 -11 19 -18 20 -108 203 -139 282 -32 82
-108 315 -114 352 -3 17 -8 35 -11 40 -3 4 -7 16 -9 25 -2 10 -18 79 -34 153
-17 75 -33 153 -37 174 -3 21 -8 48 -10 60 -17 90 -28 160 -40 256 -3 25 -7
59 -10 75 -10 64 -19 157 -29 285 -3 41 -8 95 -10 120 -9 90 -28 553 -25 620
0 8 0 32 0 52 -1 44 3 47 74 54 57 5 205 47 215 61 3 5 24 17 46 28 21 11 73
54 115 95 95 95 148 191 178 325 8 37 7 221 -2 255 -3 14 -8 37 -11 52 -3 15
-24 65 -48 110 -61 119 -164 221 -280 278 -48 23 -95 43 -105 45 -9 2 -17 4
-17 5 0 4 -165 23 -182 21 -17 -1 -40 -1 -55 0 -7 1 -17 0 -23 -1 -5 -1 -23
-2 -38 -1 -25 1 -27 3 -13 16 8 8 17 15 21 15 6 0 44 28 160 120 79 63 221
202 280 276 22 27 44 54 50 61 5 7 15 18 20 25 76 92 255 420 281 513 1 6 11
33 22 60 24 65 66 229 77 300 3 17 7 41 10 55 20 92 29 291 20 440 -9 158 -20
230 -55 373 -34 136 -48 178 -96 296 -132 320 -340 600 -609 820 -96 79 -245
181 -264 181 -6 0 -11 4 -11 9 0 5 -12 14 -27 20 -16 7 -53 25 -83 41 -159 83
-440 174 -600 194 -25 3 -63 8 -85 11 -22 3 -68 7 -102 9 -34 2 -66 7 -72 11
-6 3 -11 3 -11 -2 0 -8 -123 -8 -145 1 -7 2 -15 2 -18 -1z"/>
<path d="M2558 1285 c-2 -2 -31 -7 -63 -9 -72 -7 -193 -43 -219 -65 -10 -9
-20 -14 -23 -12 -10 8 -127 -85 -174 -138 -70 -78 -116 -170 -147 -296 -8 -29
-6 -226 2 -255 3 -14 8 -37 11 -52 9 -47 85 -183 133 -239 83 -94 221 -177
342 -205 19 -5 1228 -10 2685 -11 2838 -3 2724 -5 2810 44 17 9 32 16 35 15
13 -4 114 63 164 109 46 43 138 165 142 188 0 3 9 24 19 46 30 67 43 155 40
255 -4 103 -5 110 -30 185 -32 94 -79 169 -155 245 -59 60 -93 85 -160 117
-109 53 -155 65 -263 69 -49 2 -93 6 -98 9 -5 4 -9 2 -9 -3 0 -6 -14 -7 -32
-3 -18 4 -48 4 -65 0 -18 -3 -33 -3 -33 2 0 4 -13 4 -30 -1 -17 -5 -30 -5 -30
0 0 5 -13 5 -30 0 -17 -5 -30 -5 -30 0 0 5 -13 5 -30 0 -17 -5 -30 -5 -30 0 0
5 -13 5 -30 0 -17 -5 -30 -5 -30 0 0 5 -13 5 -30 0 -17 -5 -30 -5 -30 0 0 5
-13 5 -30 0 -17 -5 -30 -5 -30 0 0 5 -13 5 -30 0 -17 -5 -30 -5 -30 0 0 5 -13
5 -30 0 -17 -5 -30 -5 -30 0 0 5 -13 5 -30 0 -17 -5 -30 -5 -30 0 0 5 -13 5
-30 0 -17 -5 -30 -5 -30 0 0 5 -13 5 -30 0 -17 -5 -30 -5 -30 0 0 5 -13 5 -30
0 -17 -5 -30 -5 -30 0 0 5 -13 5 -30 0 -17 -5 -30 -5 -30 0 0 5 -13 5 -30 0
-17 -5 -30 -5 -30 0 0 5 -13 5 -30 0 -17 -5 -30 -5 -30 0 0 5 -13 5 -30 0 -17
-5 -30 -5 -30 0 0 5 -13 5 -30 0 -17 -5 -30 -5 -30 0 0 5 -13 5 -30 0 -17 -5
-30 -5 -30 0 0 5 -13 5 -30 0 -17 -5 -32 -5 -35 0 -3 5 -15 6 -29 0 -12 -4
-29 -4 -36 0 -8 5 -21 5 -30 0 -9 -5 -22 -5 -30 0 -8 5 -21 5 -30 0 -9 -5 -22
-5 -30 0 -8 5 -21 5 -30 0 -9 -5 -22 -5 -30 0 -8 5 -21 5 -30 0 -9 -5 -22 -5
-30 0 -8 5 -21 5 -30 0 -9 -5 -22 -5 -30 0 -8 5 -21 5 -30 0 -9 -5 -22 -5 -30
0 -8 5 -21 5 -30 0 -9 -5 -22 -5 -30 0 -8 5 -21 5 -30 0 -9 -5 -22 -5 -30 0
-8 5 -21 5 -30 0 -9 -5 -22 -5 -30 0 -8 5 -21 5 -30 0 -9 -5 -22 -5 -30 0 -8
5 -21 5 -30 0 -9 -5 -22 -5 -30 0 -8 5 -21 5 -30 0 -9 -5 -22 -5 -30 0 -8 5
-21 5 -30 0 -9 -5 -22 -5 -30 0 -8 5 -21 5 -30 0 -9 -5 -22 -5 -30 0 -8 5 -21
5 -30 0 -9 -5 -22 -5 -30 0 -8 5 -21 5 -30 0 -9 -5 -22 -5 -30 0 -8 5 -21 5
-30 0 -9 -5 -22 -5 -30 0 -8 5 -21 5 -31 0 -9 -5 -19 -7 -22 -3 -8 7 -102 8
-114 0 -5 -3 -15 -2 -23 3 -7 4 -23 5 -35 0 -12 -5 -27 -5 -34 0 -7 4 -28 4
-47 0 -19 -4 -34 -5 -34 -1 0 6 -112 4 -142 -3 -10 -2 -18 -1 -18 2 0 8 -138
7 -146 -1 -3 -3 -19 -1 -35 3 -16 5 -31 5 -34 0 -3 -4 -20 -4 -39 0 -18 4 -40
4 -48 -1 -7 -4 -20 -4 -28 1 -7 4 -23 5 -35 0 -12 -5 -27 -5 -34 0 -7 4 -28 4
-47 0 -19 -4 -34 -5 -34 -1 0 6 -112 4 -142 -3 -10 -2 -18 -1 -18 2 0 8 -138
7 -146 -1 -3 -3 -18 -1 -34 3 -16 4 -31 5 -35 2 -7 -8 -102 -5 -115 3 -6 3
-10 2 -10 -4 0 -6 -11 -6 -30 -1 -17 5 -30 5 -30 0 0 -5 -13 -5 -30 0 -17 5
-30 5 -30 0 0 -5 -13 -5 -30 0 -17 5 -30 5 -30 0 0 -5 -13 -5 -30 0 -17 5 -30
5 -30 0 0 -5 -13 -5 -30 0 -17 5 -30 5 -30 0 0 -5 -13 -5 -30 0 -17 5 -30 5
-30 0 0 -5 -13 -5 -30 0 -17 5 -30 5 -30 0 0 -5 -13 -5 -30 0 -17 5 -30 5 -30
0 0 -5 -13 -5 -30 0 -17 5 -30 5 -30 0 0 -5 -13 -5 -30 0 -17 5 -30 5 -30 0 0
-5 -13 -5 -30 0 -17 5 -30 5 -30 0 0 -5 -13 -5 -30 0 -17 5 -30 5 -30 0 0 -5
-13 -5 -30 0 -17 5 -30 5 -30 0 0 -5 -13 -5 -30 0 -17 5 -30 5 -30 0 0 -5 -13
-5 -30 0 -17 5 -30 5 -30 0 0 -5 -13 -5 -30 0 -17 5 -30 5 -30 0 0 -5 -13 -5
-30 0 -17 5 -30 5 -30 0 0 -5 -13 -5 -30 0 -17 5 -30 5 -30 0 0 -5 -13 -5 -30
0 -17 5 -30 5 -30 0 0 -5 -13 -5 -29 0 -16 4 -31 7 -33 5z"/>
</g>
</svg>
